# xmcd
#
# Track frame offsets:
#	150
#	3691
#	30993
#	53812
#	78375
#	104853
#	129455
#	158022
#	185001
#	217515
#	239638
#	279980
#	302632
#
# Disc length: 4385 seconds
#
# Revision: 3
# Processed by: cddbd v1.5.2PL0 Copyright (c) Steve Scherf et al.
# Submitted via: audiograbber 1.83.01
#
DISCID=a9111f0d
DTITLE=Pumuckl - Schabernack im Doppelpack [CD1)
DYEAR=2014
DGENRE=Hörspiel
TTITLE0=Intro
TTITLE1=Pumuckl und der erste Schnee Teil 1
TTITLE2=Pumuckl und der erste Schnee Teil 2
TTITLE3=Pumuckl und der erste Schnee Teil 3
TTITLE4=Pumuckl und der erste Schnee Teil 4
TTITLE5=Pumuckl und der erste Schnee Teil 5
TTITLE6=Pumuckl und der erste Schnee Teil 6
TTITLE7=Pumuckl und der erste Schnee Teil 7
TTITLE8=Das Weihnachtgeschenk Teil 1
TTITLE9=Das Weihnachtgeschenk Teil 2
TTITLE10=Das Weihnachtgeschenk Teil 3
TTITLE11=Das Weihnachtgeschenk Teil 4
TTITLE12=Das Weihnachtgeschenk Teil 5
EXTD=
EXTT0=
EXTT1=
EXTT2=
EXTT3=
EXTT4=
EXTT5=
EXTT6=
EXTT7=
EXTT8=
EXTT9=
EXTT10=
EXTT11=
EXTT12=
PLAYORDER=
